<svg xmlns="http://www.w3.org/2000/svg" width="1024" height="1024" viewBox="0 0 1024 1024" fill="none">
  <defs>
    <radialGradient id="bg" cx="0" cy="0" r="1" gradientUnits="userSpaceOnUse" gradientTransform="translate(760 820) rotate(-145) scale(980)">
      <stop stop-color="#38BDF8" stop-opacity="0.18"/>
      <stop offset="0.55" stop-color="#0B3B64" stop-opacity="0.55"/>
      <stop offset="1" stop-color="#060812"/>
    </radialGradient>
    <linearGradient id="robe" x1="300" y1="560" x2="740" y2="980" gradientUnits="userSpaceOnUse">
      <stop stop-color="#111827"/>
      <stop offset="1" stop-color="#0B1220"/>
    </linearGradient>
    <linearGradient id="skin" x1="420" y1="300" x2="610" y2="560" gradientUnits="userSpaceOnUse">
      <stop stop-color="#F5D1BA"/>
      <stop offset="1" stop-color="#E7B094"/>
    </linearGradient>
  </defs>

  <rect width="1024" height="1024" fill="url(#bg)"/>

  <path d="M220 960c42-230 186-320 292-320h0c106 0 250 90 292 320H220z" fill="url(#robe)"/>

  <path d="M468 640c10 70 30 96 44 96s34-26 44-96c-28 18-60 18-88 0z" fill="url(#skin)"/>
  <path d="M512 270c-92 0-164 74-164 172 0 122 86 222 164 222s164-100 164-222c0-98-72-172-164-172z" fill="url(#skin)"/>

  <!-- crown -->
  <path d="M380 340c32-44 76-66 132-66s100 22 132 66l-36 44c-24-24-56-38-96-38s-72 14-96 38l-36-44z" fill="#F59E0B" opacity="0.9"/>
  <path d="M406 388h212" stroke="#FDE68A" stroke-opacity="0.55" stroke-width="14" stroke-linecap="round"/>

  <!-- hair -->
  <path d="M352 430c18-112 96-176 160-176 74 0 148 52 164 140-44-26-96-40-164-40-78 0-130 18-160 76z" fill="#0B1220"/>

  <path d="M454 582c38 26 78 26 116 0" stroke="#0F172A" stroke-opacity="0.18" stroke-width="16" stroke-linecap="round"/>
  <circle cx="512" cy="512" r="420" stroke="#FFFFFF" stroke-opacity="0.08" stroke-width="18"/>
</svg>
