<svg xmlns="http://www.w3.org/2000/svg" width="1024" height="1024" viewBox="0 0 1024 1024" fill="none">
  <defs>
    <radialGradient id="bg" cx="0" cy="0" r="1" gradientUnits="userSpaceOnUse" gradientTransform="translate(820 260) rotate(135) scale(980)">
      <stop stop-color="#A78BFA" stop-opacity="0.22"/>
      <stop offset="0.55" stop-color="#0B3B64" stop-opacity="0.55"/>
      <stop offset="1" stop-color="#060812"/>
    </radialGradient>
    <linearGradient id="robe" x1="300" y1="560" x2="740" y2="980" gradientUnits="userSpaceOnUse">
      <stop stop-color="#111827"/>
      <stop offset="1" stop-color="#0B1220"/>
    </linearGradient>
    <linearGradient id="skin" x1="420" y1="300" x2="610" y2="560" gradientUnits="userSpaceOnUse">
      <stop stop-color="#F7D7C2"/>
      <stop offset="1" stop-color="#EAB99E"/>
    </linearGradient>
  </defs>

  <rect width="1024" height="1024" fill="url(#bg)"/>

  <path d="M220 960c40-220 178-310 292-310h0c114 0 252 90 292 310H220z" fill="url(#robe)"/>

  <path d="M468 640c10 70 30 96 44 96s34-26 44-96c-28 18-60 18-88 0z" fill="url(#skin)"/>
  <path d="M512 270c-92 0-164 74-164 172 0 122 86 222 164 222s164-100 164-222c0-98-72-172-164-172z" fill="url(#skin)"/>

  <!-- crown (sleek) -->
  <path d="M392 334c18-34 56-54 120-54s102 20 120 54l-38 44c-18-18-46-30-82-30s-64 12-82 30l-38-44z" fill="#FBBF24" opacity="0.9"/>
  <path d="M410 380h204" stroke="#FDE68A" stroke-opacity="0.55" stroke-width="16" stroke-linecap="round"/>

  <!-- hair -->
  <path d="M352 430c18-112 96-176 160-176 74 0 148 52 164 140-44-26-96-40-164-40-78 0-130 18-160 76z" fill="#0B1220"/>

  <!-- beard -->
  <path d="M388 582c34 70 78 102 124 102s90-32 124-102c-36 18-78 28-124 28s-88-10-124-28z" fill="#0B1220" opacity="0.78"/>

  <path d="M448 576c42 32 86 32 128 0" stroke="#0F172A" stroke-opacity="0.18" stroke-width="16" stroke-linecap="round"/>
  <circle cx="512" cy="512" r="420" stroke="#FFFFFF" stroke-opacity="0.08" stroke-width="18"/>
</svg>
