<svg xmlns="http://www.w3.org/2000/svg" width="1024" height="1024" viewBox="0 0 1024 1024" fill="none">
  <defs>
    <radialGradient id="bg" cx="0" cy="0" r="1" gradientUnits="userSpaceOnUse" gradientTransform="translate(360 240) rotate(60) scale(980)">
      <stop stop-color="#22C55E" stop-opacity="0.25"/>
      <stop offset="0.55" stop-color="#0B3B64" stop-opacity="0.55"/>
      <stop offset="1" stop-color="#050A12"/>
    </radialGradient>
    <linearGradient id="robe" x1="320" y1="560" x2="720" y2="960" gradientUnits="userSpaceOnUse">
      <stop stop-color="#0B1220"/>
      <stop offset="1" stop-color="#071426"/>
    </linearGradient>
    <linearGradient id="trim" x1="360" y1="700" x2="680" y2="940" gradientUnits="userSpaceOnUse">
      <stop stop-color="#F59E0B" stop-opacity="0.9"/>
      <stop offset="1" stop-color="#FDE68A" stop-opacity="0.5"/>
    </linearGradient>
    <linearGradient id="skin" x1="420" y1="300" x2="610" y2="560" gradientUnits="userSpaceOnUse">
      <stop stop-color="#F4D2B8"/>
      <stop offset="1" stop-color="#E7B094"/>
    </linearGradient>
  </defs>

  <rect width="1024" height="1024" fill="url(#bg)"/>

  <!-- robe -->
  <path d="M230 950c40-210 176-300 282-300h0c106 0 242 90 282 300H230z" fill="url(#robe)"/>
  <path d="M314 950c34-160 122-230 198-230h0c76 0 164 70 198 230H314z" fill="url(#trim)" opacity="0.25"/>

  <!-- neck -->
  <path d="M466 640c12 72 32 102 46 102s34-30 46-102c-30 18-62 18-92 0z" fill="url(#skin)"/>

  <!-- head -->
  <path d="M512 270c-92 0-166 74-166 172 0 122 88 222 166 222s166-100 166-222c0-98-74-172-166-172z" fill="url(#skin)"/>

  <!-- crown (generic) -->
  <path d="M360 320l52 80 46-64 54 72 54-72 46 64 52-80v86c0 34-28 62-62 62H422c-34 0-62-28-62-62v-86z" fill="#F59E0B" opacity="0.9"/>
  <path d="M394 416h236" stroke="#FDE68A" stroke-opacity="0.55" stroke-width="18" stroke-linecap="round"/>
  <circle cx="458" cy="382" r="14" fill="#60A5FA" opacity="0.9"/>
  <circle cx="566" cy="382" r="14" fill="#A78BFA" opacity="0.9"/>

  <!-- hair + beard -->
  <path d="M352 428c20-110 100-174 160-174 72 0 146 48 164 136-40-24-92-38-164-38-82 0-134 18-160 76z" fill="#0B1220"/>
  <path d="M392 590c32 56 74 82 120 82s88-26 120-82c-28 12-68 22-120 22s-92-10-120-22z" fill="#0B1220" opacity="0.75"/>

  <path d="M452 582c38 26 78 26 116 0" stroke="#0F172A" stroke-opacity="0.18" stroke-width="16" stroke-linecap="round"/>
  <circle cx="512" cy="512" r="420" stroke="#FFFFFF" stroke-opacity="0.08" stroke-width="18"/>
</svg>
