<svg xmlns="http://www.w3.org/2000/svg" width="1024" height="1024" viewBox="0 0 1024 1024" fill="none">
  <defs>
    <radialGradient id="bg" cx="0" cy="0" r="1" gradientUnits="userSpaceOnUse" gradientTransform="translate(820 820) rotate(-145) scale(980)">
      <stop stop-color="#60A5FA" stop-opacity="0.16"/>
      <stop offset="0.55" stop-color="#0B3B64" stop-opacity="0.55"/>
      <stop offset="1" stop-color="#060812"/>
    </radialGradient>
    <linearGradient id="robe" x1="300" y1="560" x2="740" y2="980" gradientUnits="userSpaceOnUse">
      <stop stop-color="#111827"/>
      <stop offset="1" stop-color="#0B1220"/>
    </linearGradient>
    <linearGradient id="skin" x1="420" y1="300" x2="610" y2="560" gradientUnits="userSpaceOnUse">
      <stop stop-color="#F5D1BA"/>
      <stop offset="1" stop-color="#E7B094"/>
    </linearGradient>
  </defs>

  <rect width="1024" height="1024" fill="url(#bg)"/>

  <path d="M220 960c42-230 186-320 292-320h0c106 0 250 90 292 320H220z" fill="url(#robe)"/>

  <path d="M468 640c10 70 30 96 44 96s34-26 44-96c-28 18-60 18-88 0z" fill="url(#skin)"/>
  <path d="M512 270c-92 0-164 74-164 172 0 122 86 222 164 222s164-100 164-222c0-98-72-172-164-172z" fill="url(#skin)"/>

  <!-- modern turban -->
  <path d="M360 410c18-86 84-136 152-136s134 50 152 136c-40-18-88-28-152-28s-112 10-152 28z" fill="#0B1220" opacity="0.78"/>
  <path d="M372 418c40-52 84-78 140-78s100 26 140 78c-40-22-86-32-140-32s-100 10-140 32z" fill="#FBBF24" opacity="0.22"/>

  <path d="M392 590c32 56 74 82 120 82s88-26 120-82c-28 12-68 22-120 22s-92-10-120-22z" fill="#0B1220" opacity="0.78"/>
  <path d="M448 576c42 32 86 32 128 0" stroke="#0F172A" stroke-opacity="0.16" stroke-width="16" stroke-linecap="round"/>

  <circle cx="512" cy="512" r="420" stroke="#FFFFFF" stroke-opacity="0.08" stroke-width="18"/>
</svg>
