<svg xmlns="http://www.w3.org/2000/svg" width="1024" height="1024" viewBox="0 0 1024 1024" fill="none">
  <defs>
    <radialGradient id="bg" cx="0" cy="0" r="1" gradientUnits="userSpaceOnUse" gradientTransform="translate(820 300) rotate(135) scale(980)">
      <stop stop-color="#FBBF24" stop-opacity="0.18"/>
      <stop offset="0.55" stop-color="#0B3B64" stop-opacity="0.55"/>
      <stop offset="1" stop-color="#060812"/>
    </radialGradient>
    <linearGradient id="robe" x1="300" y1="560" x2="740" y2="980" gradientUnits="userSpaceOnUse">
      <stop stop-color="#111827"/>
      <stop offset="1" stop-color="#0B1220"/>
    </linearGradient>
    <linearGradient id="skin" x1="420" y1="300" x2="610" y2="560" gradientUnits="userSpaceOnUse">
      <stop stop-color="#F7D7C2"/>
      <stop offset="1" stop-color="#EAB99E"/>
    </linearGradient>
  </defs>

  <rect width="1024" height="1024" fill="url(#bg)"/>

  <path d="M220 960c42-230 186-320 292-320h0c106 0 250 90 292 320H220z" fill="url(#robe)"/>

  <path d="M468 640c10 70 30 96 44 96s34-26 44-96c-28 18-60 18-88 0z" fill="url(#skin)"/>
  <path d="M512 270c-92 0-164 74-164 172 0 122 86 222 164 222s164-100 164-222c0-98-72-172-164-172z" fill="url(#skin)"/>

  <!-- turban -->
  <path d="M354 410c20-92 92-148 158-148s138 56 158 148c-42-16-92-26-158-26s-116 10-158 26z" fill="#FBBF24" opacity="0.35"/>
  <path d="M370 408c26-66 86-104 142-104s116 38 142 104c-38-14-84-22-142-22s-104 8-142 22z" fill="#0B1220" opacity="0.75"/>
  <circle cx="406" cy="388" r="14" fill="#60A5FA" opacity="0.9"/>

  <!-- mustache + beard -->
  <path d="M440 560c26 16 58 16 84 0" stroke="#0B1220" stroke-opacity="0.55" stroke-width="18" stroke-linecap="round"/>
  <path d="M392 590c32 56 74 82 120 82s88-26 120-82c-28 12-68 22-120 22s-92-10-120-22z" fill="#0B1220" opacity="0.78"/>

  <circle cx="512" cy="512" r="420" stroke="#FFFFFF" stroke-opacity="0.08" stroke-width="18"/>
</svg>
